# xmcd
#
# Track frame offsets: 
#        182
#        26395
#        39582
#        53997
#        70265
#        86372
#        103370
#        121902
#        133175
#        155737
#        174490
#        187830
#
# Disc length: 2684 seconds
#
# Revision: 3
# Processed by: cddbd v1.5.1PL0 Copyright (c) Steve Scherf et al.
# Submitted via: ExactAudioCopy v0.95a5
#
DISCID=a00a7a0c
DTITLE=Various Artist - Gilberto Gil Songbook 3
DYEAR=1992
DGENRE=MPB
TTITLE0=João Bosco - Expresso 2222
TTITLE1=Caetano Veloso - Super-Homem, A Canção
TTITLE2=Paulinho Da Viola - Felicidade Vem Depois
TTITLE3=Moraes Moreira and Davi Moraes - Procissão
TTITLE4=Hermeto Pascoal and Margareth Menezes - Domingo No Parque
TTITLE5=Djavan - Lamento Sertanejo
TTITLE6=Zizi Possi and Hélio Delmiro - Copo Vazio
TTITLE7=Nana Caymmi - Zabel
TTITLE8=Francis Hime - Minha Senhora
TTITLE9=Leila Pinheiro and Oscar Castro Neves - Eu Vim Da Bahia
TTITLE10=Jorge Mautner and Nelson Jacobina - Andar Com Fé
TTITLE11=Carlos Lyra and Verônica Sabino - Roda
EXTD=YEAR: 1992
EXTT0=
EXTT1=
EXTT2=
EXTT3=
EXTT4=
EXTT5=
EXTT6=
EXTT7=
EXTT8=
EXTT9=
EXTT10=
EXTT11=
PLAYORDER=
